<svg xmlns="http://www.w3.org/2000/svg" fill= "#FF9943"  viewBox="0 0 48 48" width="48px" height="48px"><path d="M 13.5 6 C 9.3754991 6 6 9.3754991 6 13.5 L 6 34.5 C 6 38.624501 9.3754991 42 13.5 42 L 34.5 42 C 38.624501 42 42 38.624501 42 34.5 L 42 13.5 C 42 9.3754991 38.624501 6 34.5 6 L 13.5 6 z M 21 15 C 21.66 15 22.249453 15.430312 22.439453 16.070312 L 26.939453 31.070312 C 27.169453 31.860312 26.719687 32.699453 25.929688 32.939453 C 25.789687 32.979453 25.64 33 25.5 33 C 24.85 33 24.260547 32.579688 24.060547 31.929688 L 23.480469 30 L 18.519531 30 L 17.939453 31.929688 C 17.699453 32.719687 16.870313 33.169453 16.070312 32.939453 C 15.280313 32.699453 14.830547 31.860313 15.060547 31.070312 L 19.560547 16.070312 C 19.750547 15.430313 20.34 15 21 15 z M 30.5 16.5 C 31.6 16.5 32.5 17.4 32.5 18.5 C 32.5 19.6 31.6 20.5 30.5 20.5 C 29.4 20.5 28.5 19.6 28.5 18.5 C 28.5 17.4 29.4 16.5 30.5 16.5 z M 21 21.720703 L 19.419922 27 L 22.580078 27 L 21 21.720703 z M 30.5 22 C 31.33 22 32 22.67 32 23.5 L 32 31.5 C 32 32.33 31.33 33 30.5 33 C 29.67 33 29 32.33 29 31.5 L 29 23.5 C 29 22.67 29.67 22 30.5 22 z"/></svg>