<?xml version="1.0" encoding="UTF-8"?>
<svg id="Capa_18" data-name="Capa 18" xmlns="http://www.w3.org/2000/svg" xmlns:xlink="http://www.w3.org/1999/xlink" viewBox="0 0 1802.25 1054.68">
  <defs>
    <style>
      .cls-1 {
        fill: url(#Degradado_sin_nombre_506);
      }

      .cls-2 {
        fill: url(#Degradado_sin_nombre_512);
      }

      .cls-3 {
        fill: url(#Degradado_sin_nombre_512-2);
      }

      .cls-4 {
        fill: none;
        stroke: #f28444;
        stroke-miterlimit: 10;
      }
    </style>
    <radialGradient id="Degradado_sin_nombre_506" data-name="Degradado sin nombre 506" cx="183.07" cy="167.59" fx="183.07" fy="167.59" r="1123.24" gradientUnits="userSpaceOnUse">
      <stop offset=".06" stop-color="#bc7d53"/>
      <stop offset=".54" stop-color="#f6975a"/>
      <stop offset="1" stop-color="#ffc58d"/>
    </radialGradient>
    <linearGradient id="Degradado_sin_nombre_512" data-name="Degradado sin nombre 512" x1="238.04" y1="824.89" x2="1234.52" y2="342.09" gradientUnits="userSpaceOnUse">
      <stop offset=".18" stop-color="#284456"/>
      <stop offset=".83" stop-color="#48cad9"/>
    </linearGradient>
    <linearGradient id="Degradado_sin_nombre_512-2" data-name="Degradado sin nombre 512" x1="1335.37" y1="633.37" x2="633.62" y2="596.88" xlink:href="#Degradado_sin_nombre_512"/>
  </defs>
  <path class="cls-1" d="m973.95,878.93c9.99-3.31,29.18-18.82,35.14-30.03.22-.01.67-.04,1.27-.12,0,0,1.08-.15,2.14-.44,2.76-.75,24.44-186.08,35.23-254.14,1.44-9.06,2.71-16.24,3.32-19.63,4.88,0,12.81.62,21.63,4.37,12.12,5.14,19.27,13.36,22.46,17.54,1.09-12.62,1.31-35.91-9.47-61.75-2.3-5.52-13.78-33.03-35.79-48.6-10.46-7.4-22.46-13.16-22.46-13.16-9.07-4.36-17.37-7.72-17.37-7.72-2.12-.74-5.67-2.23-9.19-5.19-5.89-4.94-8.09-10.97-9.03-13.07-7.77-17.44-43.97-23.92-74.18-29.17-6.84-1.19-12.38-1.96-15.55-2.38-6.15-7.06-6.83-16.49-2.41-22.36,3.7-4.91,9.73-5.69,11.23-5.85,17.81-6.16,37.26-13.88,57.78-23.63,18.17-8.63,34.55-17.61,49.13-26.4,0,0,13.99-10.9,13.99-10.9l-17.44-15.25c-8.48-6.79-54.78-21.74-65.61-25.64,0,0-119.15-41.04-119.15-41.04l-6.47-3.16-5.82-6.08c-3.23-12.5,4.1-17.06,20.25-28.43,25.31-21.02,88.7-38.46,143.05-56.65-43.52-.42-74.54,9.14-124.92,19.38-17.05,6.24-34.1,12.47-51.16,18.71l-52.87,30.75c-10.77,7.62-39.82,16.33-27.83,36.53,12.34,12.29,30.13,13.95,44.54,23.43,6.26,5.98,63.71,20.48,54.7,36.49-25.19,12.09-50,25.15-75.47,36.63-6.43,4.98-20.48,14.89-33.06,25.64-7.51,6.41-12.82,12.1-15.09,14.43-6.1,6.27-11.23,12.12-15.43,17.2,2.95,2.32,8.84,6.29,17.31,7.95,6.61,1.29,12.16.66,15.58,0,9.47,10.99,13.2,17.88,11.21,20.67-1.07,1.5-3.81,1.82-8.2.95-33.84,22.16-57.99,44.24-73.81,60.53-27.26,28.05-38.31,47.6-44.98,63.34-1.91,4.51-3.31,8.34-4.23,11.01-.15.18-.29.36-.44.56-.41.54-.76,1.06-1.07,1.57,3.68-.87,8.28-1.42,13.46-.8,3.78.45,6.62.79,9.15,2.85,4.86,3.95,4.62,11.03,4.54,12.5,0,0,27.26,244.28,27.26,244.28l2.52,3.82c88.89,84.91,226.33,88.68,321.64,40.48Z"/>
  <path class="cls-2" d="m652.31,838.45l-29.78-248.1s3.83-20.73-26.4-15.32c-30.23,5.42,0,0,0,0,12.03-24.22,24.95-42.99,35.41-56.46,0,0,30.95-39.84,66.75-63.26,9.73-6.36,18.01-10.29,18.01-10.29,5.95-2.82,12.82-5.54,12.8-5.57,0-.02-1.53.6-2.86,1.14,0,0,13.44-3.81-10.15-24.13-23.59-20.33,0,0,0,0,0,0-40.94,1.58-21.46-18.61,19.48-20.19,0,0,0,0,3.05-3.57,8.89-10.17,16.9-17.7,0,0,27.26-25.62,111.64-64.81l-36.15,6.41c-51.04,11.27-106.37,32.16-158.2,69.96-4.7,3.43-9.27,6.92-13.69,10.45-9.68,8.02-17.13,15.53-22.46,21.34-10.89,11.88-17.08,21.52-23.16,30.88-4.49,6.92-9.19,14.82-9.86,22.05-.08.86-.34,4.33-1.02,9.18-.39,2.83-.87,6.26-1.37,8.24-1.87,7.51-7.38,7.92-13.61,16.44-2.58,3.53-1.09,2.89-8.66,18.59-4.92,10.21-4.71,9.1-6.55,13.42-4.96,11.61-7.43,17.41-7.33,23.23.06,3.19.61,5.95-1.2,7.68-2.15,2.05-6.21,1.32-9.36.35v29.47l1.4,31.26,15-2.02s-8.68,9.12-9.65,11.84c-.96,2.72-12.37,18.86-9.04,58.51l-.2,1.62-2.89,1.07s-15.33,16.78-7.79,45.72c0,0,6.49,43.16,9.47,47.37,0,0,2.22,27.02,32.54,55.7l28.8,29.62,58.25.47s24.11.6,24.09-21.87c0,0,2.22-14.15-.94-24.09l2.67.22Z"/>
  <path class="cls-3" d="m1008.99,858.06l30.35-281.05s17.44-20,54.86,14.21c0,0-8.78-46.5-19.77-63.68,0,0-10.7-25.09-42.1-50l-23.64-10.53-21.84-14.82-35.22-20.09s-28.51-16.21-50-16.44c-21.49-.23,0,0,0,0,0,0-21.58-25.26,10.47-30.64l78.36-34.15s16.73,3.63,35.67,18.25c0,0,60.66,39.55,76.51,66.53,0,0,22.85,29.47,23.03,59.63l41.64,78.75,4.8,59.06-8.07,1.52,9.31,28.8s6.45,18.51,5.79,25.26l-1.67,10.04s8.07,14.25,9.82,23.29c0,0,5.58,59.7-17.73,98.96-23.31,39.26,0,0,0,0,0,0-13.54,26.57-29.86,39.82l-28.86,21.28h-80.88s-27.46-2.15-20.96-24Z"/>
  <path class="cls-4" d="m1004.71,660.31l8.48,9.64-59.81,45.87,24.98,28.17,9.07-89.03-9.07,89.03,29.57-22.43-49.23-58.06c3.09-2.15,6.18-4.31,9.27-6.46"/>
</svg>